<?xml version="1.0" encoding="UTF-8"?>
<svg width="658px" height="338px" viewBox="0 0 658 338" version="1.1" xmlns="http://www.w3.org/2000/svg" xmlns:xlink="http://www.w3.org/1999/xlink">
    <title>ticket-horizontal</title>
    <defs>
        <linearGradient x1="0%" y1="50%" x2="100%" y2="50.1406761%" id="linearGradient-1">
            <stop stop-color="#EC6193" offset="0%"></stop>
            <stop stop-color="#EC4B31" offset="20.4505839%"></stop>
            <stop stop-color="#FFBC29" offset="41.0332989%"></stop>
            <stop stop-color="#EADF58" offset="62.5661695%"></stop>
            <stop stop-color="#57C84F" offset="81.4312185%"></stop>
            <stop stop-color="#53A0EC" offset="100%"></stop>
        </linearGradient>
        <path d="M20,0 C8.95431,0 0,8.95431 0,20 L0,138 C14.9117,138 27,150.088 27,165 C27,179.912 14.9117,192 0,192 L0,310 C0,321.046 8.9543,330 20,330 L630,330 C641.046,330 650,321.046 650,310 L650,192 C635.088,192 623,179.912 623,165 C623,150.088 635.088,138 650,138 L650,20 C650,8.95431 641.046,0 630,0 L20,0 Z" id="path-2"></path>
    </defs>
    <g id="Page-1" stroke="none" stroke-width="1" fill="none" fill-rule="evenodd">
        <g id="ticket-horizontal" transform="translate(4.000000, 4.000000)">
            <g id="Clipped">
                <mask id="mask-3" fill="white">
                    <use xlink:href="#path-2"></use>
                </mask>
                <use id="Path" stroke="url(#linearGradient-1)" stroke-width="8" xlink:href="#path-2"></use>
                <g id="Group" mask="url(#mask-3)" fill="#000000" fill-rule="nonzero">
                    <g transform="translate(-86.000000, -101.000000)" id="Oval">
                        <ellipse cx="574.5" cy="266" rx="262.5" ry="266"></ellipse>
                        <ellipse cx="447.873" cy="266" rx="217.333" ry="220"></ellipse>
                        <ellipse cx="247.5" cy="266" rx="247.5" ry="250"></ellipse>
                    </g>
                </g>
            </g>
            <path d="M21,5 C12.1634,5 5,12.1634 5,21 L5,133.388 C20.2981,135.789 32,149.028 32,165 C32,180.972 20.2981,194.211 5,196.612 L5,309 C5,317.837 12.1634,325 21,325 L629,325 C637.837,325 645,317.837 645,309 L645,196.612 C629.702,194.211 618,180.972 618,165 C618,149.028 629.702,135.789 645,133.388 L645,21 C645,12.1634 637.837,5 629,5 L21,5 Z" id="Path" fill="#000000"></path>
            <line x1="512" y1="5" x2="512" y2="326" id="Path" stroke="#444444" stroke-dasharray="6"></line>
            <path d="M63.1186,266.935 L64.6548,266.935 L64.6548,262.496 L69.7308,262.496 L69.7308,266.935 L71.272,266.935 L71.272,256.753 L69.7308,256.753 L69.7308,261.178 L64.6548,261.178 L64.6548,256.753 L63.1186,256.753 L63.1186,266.935 Z M76.3265,267.089 C78.4792,267.089 79.8862,265.513 79.8862,263.152 C79.8862,260.776 78.4792,259.2 76.3265,259.2 C74.1738,259.2 72.7669,260.776 72.7669,263.152 C72.7669,265.513 74.1738,267.089 76.3265,267.089 Z M76.3315,265.842 C74.9245,265.842 74.2683,264.614 74.2683,263.147 C74.2683,261.685 74.9245,260.442 76.3315,260.442 C77.7285,260.442 78.3848,261.685 78.3848,263.147 C78.3848,264.614 77.7285,265.842 76.3315,265.842 Z M86.9878,261.163 C86.6795,259.975 85.7498,259.2 84.0993,259.2 C82.3741,259.2 81.1511,260.109 81.1511,261.462 C81.1511,262.545 81.8074,263.266 83.2392,263.584 L84.5318,263.868 C85.2676,264.032 85.6106,264.36 85.6106,264.837 C85.6106,265.429 84.9792,265.891 84.0048,265.891 C83.1149,265.891 82.5432,265.508 82.3642,264.758 L80.9274,264.976 C81.176,266.329 82.2996,267.089 84.0148,267.089 C85.8592,267.089 87.1369,266.11 87.1369,264.728 C87.1369,263.649 86.4508,262.983 85.0488,262.66 L83.8358,262.381 C82.9956,262.182 82.6326,261.899 82.6376,261.382 C82.6326,260.795 83.269,260.378 84.1142,260.378 C85.0389,260.378 85.4665,260.89 85.6405,261.402 L86.9878,261.163 Z M92.056,259.299 L90.4899,259.299 L90.4899,257.469 L89.0034,257.469 L89.0034,259.299 L87.8848,259.299 L87.8848,260.492 L89.0034,260.492 L89.0034,265.001 C88.9984,266.388 90.0574,267.06 91.2307,267.035 C91.703,267.03 92.0212,266.94 92.1952,266.876 L91.9267,265.648 C91.8273,265.668 91.6433,265.712 91.4047,265.712 C90.9224,265.712 90.4899,265.553 90.4899,264.693 L90.4899,260.492 L92.056,260.492 L92.056,259.299 Z M96.6295,267.089 C98.2949,267.089 99.4732,266.269 99.8113,265.026 L98.4043,264.773 C98.1359,265.494 97.4896,265.861 96.6444,265.861 C95.3717,265.861 94.5165,265.036 94.4768,263.565 L99.9057,263.565 L99.9057,263.038 C99.9057,260.278 98.2552,259.2 96.5251,259.2 C94.3972,259.2 92.9952,260.82 92.9952,263.167 C92.9952,265.538 94.3773,267.089 96.6295,267.089 Z M94.4817,262.451 C94.5414,261.367 95.3269,260.427 96.535,260.427 C97.6884,260.427 98.4441,261.283 98.4491,262.451 L94.4817,262.451 Z M104.134,267.084 C105.526,267.084 106.073,266.234 106.341,265.747 L106.465,265.747 L106.465,266.935 L107.917,266.935 L107.917,256.753 L106.431,256.753 L106.431,260.537 L106.341,260.537 C106.073,260.065 105.566,259.2 104.144,259.2 C102.299,259.2 100.942,260.656 100.942,263.132 C100.942,265.603 102.279,267.084 104.134,267.084 Z M104.462,265.817 C103.134,265.817 102.443,264.648 102.443,263.117 C102.443,261.601 103.12,260.462 104.462,260.462 C105.759,260.462 106.455,261.521 106.455,263.117 C106.455,264.723 105.745,265.817 104.462,265.817 Z M113.303,266.935 L114.755,266.935 L114.755,265.747 L114.879,265.747 C115.148,266.234 115.694,267.084 117.087,267.084 C118.936,267.084 120.278,265.603 120.278,263.132 C120.278,260.656 118.916,259.2 117.072,259.2 C115.655,259.2 115.143,260.065 114.879,260.537 L114.79,260.537 L114.79,256.753 L113.303,256.753 L113.303,266.935 Z M114.76,263.117 C114.76,261.521 115.456,260.462 116.753,260.462 C118.101,260.462 118.777,261.601 118.777,263.117 C118.777,264.648 118.081,265.817 116.753,265.817 C115.476,265.817 114.76,264.723 114.76,263.117 Z M122.334,269.799 C123.562,269.799 124.337,269.158 124.78,267.954 L127.937,259.314 L126.331,259.299 L124.397,265.225 L124.317,265.225 L122.383,259.299 L120.792,259.299 L123.587,267.035 L123.403,267.542 C123.025,268.556 122.493,268.641 121.677,268.417 L121.319,269.635 C121.498,269.714 121.886,269.799 122.334,269.799 Z" id="Shape" fill="#8A8F98" fill-rule="nonzero"></path>
            <polygon id="Path" fill="#8A8F98" fill-rule="nonzero" points="142.25 254.935 151.5 270.935 133 270.935"></polygon>
            <path d="M172.9,263.435 C172.9,260.86 171,259.06 168.275,259.06 C165.55,259.06 163.65,260.86 163.65,263.435 C163.65,265.96 165.7,267.81 168.525,267.81 C170.075,267.81 171.475,267.235 172.375,266.185 L170.675,265.21 C170.15,265.735 169.375,266.06 168.525,266.06 C167.275,266.06 166.2,265.385 165.825,264.36 L165.75,264.185 L172.825,264.185 C172.875,263.935 172.9,263.685 172.9,263.435 Z M165.725,262.685 L165.775,262.535 C166.1,261.46 167.05,260.81 168.25,260.81 C169.475,260.81 170.4,261.46 170.725,262.535 L170.775,262.685 L165.725,262.685 Z" id="Shape" fill="#8A8F98" fill-rule="nonzero"></path>
            <path d="M199.825,263.435 C199.825,260.86 197.925,259.06 195.2,259.06 C192.475,259.06 190.575,260.86 190.575,263.435 C190.575,265.96 192.625,267.81 195.45,267.81 C197,267.81 198.4,267.235 199.3,266.185 L197.6,265.21 C197.075,265.735 196.3,266.06 195.45,266.06 C194.2,266.06 193.125,265.385 192.75,264.36 L192.675,264.185 L199.75,264.185 C199.8,263.935 199.825,263.685 199.825,263.435 Z M192.65,262.685 L192.7,262.535 C193.025,261.46 193.975,260.81 195.175,260.81 C196.4,260.81 197.325,261.46 197.65,262.535 L197.7,262.685 L192.65,262.685 Z" id="Shape" fill="#8A8F98" fill-rule="nonzero"></path>
            <path d="M187.825,262.01 L189.525,261.035 C188.725,259.785 187.3,259.085 185.575,259.085 C182.85,259.085 180.95,260.885 180.95,263.46 C180.95,266.035 182.85,267.835 185.575,267.835 C187.3,267.835 188.725,267.135 189.525,265.885 L187.825,264.91 C187.375,265.66 186.575,266.085 185.575,266.085 C184,266.085 182.95,265.035 182.95,263.46 C182.95,261.885 184,260.835 185.575,260.835 C186.55,260.835 187.375,261.26 187.825,262.01 Z" id="Path" fill="#8A8F98" fill-rule="nonzero"></path>
            <polygon id="Path" fill="#8A8F98" fill-rule="nonzero" points="203.575 256.335 201.575 256.335 201.575 267.585 203.575 267.585"></polygon>
            <polygon id="Path" fill="#8A8F98" fill-rule="nonzero" points="165.125 256.335 162.825 256.335 158.425 263.935 154.025 256.335 151.7 256.335 158.425 267.935"></polygon>
            <path d="M179.275,261.385 C179.5,261.385 179.725,261.41 179.95,261.46 L179.95,259.335 C178.25,259.385 176.65,260.335 176.65,261.51 L176.65,259.335 L174.65,259.335 L174.65,267.585 L176.65,267.585 L176.65,264.01 C176.65,262.46 177.725,261.385 179.275,261.385 Z" id="Path" fill="#8A8F98" fill-rule="nonzero"></path>
            <path d="M291.354,261.377 C291.354,259.884 292.268,259.031 293.536,259.031 C294.773,259.031 295.523,259.841 295.523,261.2 L295.523,266.935 L297.345,266.935 L297.345,260.981 C297.345,258.665 296.071,257.452 294.158,257.452 C292.75,257.452 291.829,258.104 291.397,259.098 L291.281,259.098 L291.281,257.574 L289.532,257.574 L289.532,266.935 L291.354,266.935 L291.354,261.377 Z M303.48,267.124 C305.522,267.124 306.967,266.119 307.381,264.595 L305.656,264.284 C305.327,265.168 304.535,265.619 303.499,265.619 C301.938,265.619 300.89,264.607 300.841,262.803 L307.497,262.803 L307.497,262.157 C307.497,258.775 305.473,257.452 303.352,257.452 C300.744,257.452 299.025,259.439 299.025,262.316 C299.025,265.223 300.72,267.124 303.48,267.124 Z M300.847,261.438 C300.921,260.109 301.884,258.957 303.365,258.957 C304.779,258.957 305.705,260.006 305.711,261.438 L300.847,261.438 Z M310.396,257.574 L308.397,257.574 L311.273,262.255 L308.36,266.935 L310.359,266.935 L312.462,263.437 L314.571,266.935 L316.564,266.935 L313.62,262.255 L316.539,257.574 L314.546,257.574 L312.462,261.219 L310.396,257.574 Z M322.437,257.574 L320.517,257.574 L320.517,255.331 L318.695,255.331 L318.695,257.574 L317.324,257.574 L317.324,259.037 L318.695,259.037 L318.695,264.564 C318.689,266.265 319.987,267.088 321.425,267.057 C322.004,267.051 322.394,266.941 322.608,266.862 L322.278,265.357 C322.157,265.381 321.931,265.436 321.639,265.436 C321.047,265.436 320.517,265.241 320.517,264.187 L320.517,259.037 L322.437,259.037 L322.437,257.574 Z M324.11,257.574 L324.11,267.533 C324.11,268.398 323.75,268.873 322.884,268.873 L322.592,268.873 L322.592,270.44 C322.72,270.446 322.836,270.446 322.964,270.446 C324.902,270.446 325.932,269.422 325.932,267.545 L325.932,257.574 L324.11,257.574 Z M325.012,256.129 C325.639,256.129 326.163,255.642 326.163,255.045 C326.163,254.447 325.639,253.954 325.012,253.954 C324.378,253.954 323.86,254.447 323.86,255.045 C323.86,255.642 324.378,256.129 325.012,256.129 Z M335.055,259.859 C334.677,258.403 333.538,257.452 331.514,257.452 C329.399,257.452 327.9,258.567 327.9,260.225 C327.9,261.554 328.704,262.437 330.46,262.828 L332.044,263.175 C332.946,263.376 333.367,263.778 333.367,264.363 C333.367,265.089 332.593,265.655 331.398,265.655 C330.307,265.655 329.606,265.186 329.387,264.266 L327.626,264.534 C327.93,266.192 329.308,267.124 331.41,267.124 C333.672,267.124 335.238,265.924 335.238,264.229 C335.238,262.907 334.397,262.09 332.678,261.694 L331.191,261.353 C330.161,261.109 329.716,260.761 329.722,260.128 C329.716,259.408 330.496,258.896 331.532,258.896 C332.666,258.896 333.19,259.524 333.403,260.152 L335.055,259.859 Z M338.099,267.051 C338.763,267.051 339.318,266.509 339.318,265.832 C339.318,265.168 338.763,264.619 338.099,264.619 C337.429,264.619 336.88,265.168 336.88,265.832 C336.88,266.509 337.429,267.051 338.099,267.051 Z M345.359,267.124 C347.998,267.124 349.723,265.192 349.723,262.297 C349.723,259.384 347.998,257.452 345.359,257.452 C342.72,257.452 340.995,259.384 340.995,262.297 C340.995,265.192 342.72,267.124 345.359,267.124 Z M345.365,265.594 C343.64,265.594 342.836,264.089 342.836,262.291 C342.836,260.499 343.64,258.976 345.365,258.976 C347.077,258.976 347.882,260.499 347.882,262.291 C347.882,264.089 347.077,265.594 345.365,265.594 Z M351.413,266.935 L353.236,266.935 L353.236,261.219 C353.236,259.993 354.18,259.11 355.472,259.11 C355.85,259.11 356.277,259.177 356.423,259.219 L356.423,257.476 C356.24,257.452 355.881,257.434 355.649,257.434 C354.552,257.434 353.614,258.055 353.272,259.061 L353.175,259.061 L353.175,257.574 L351.413,257.574 L351.413,266.935 Z M361.247,270.641 C363.63,270.641 365.47,269.55 365.47,267.143 L365.47,257.574 L363.685,257.574 L363.685,259.091 L363.55,259.091 C363.227,258.512 362.581,257.452 360.838,257.452 C358.577,257.452 356.913,259.238 356.913,262.218 C356.913,265.204 358.614,266.795 360.826,266.795 C362.545,266.795 363.209,265.826 363.538,265.229 L363.654,265.229 L363.654,267.069 C363.654,268.538 362.648,269.172 361.265,269.172 C359.747,269.172 359.156,268.41 358.833,267.874 L357.267,268.52 C357.761,269.666 359.01,270.641 361.247,270.641 Z M361.228,265.284 C359.601,265.284 358.754,264.034 358.754,262.194 C358.754,260.396 359.583,259 361.228,259 C362.819,259 363.672,260.298 363.672,262.194 C363.672,264.126 362.801,265.284 361.228,265.284 Z M372.325,253.868 L370.698,253.868 L366.675,268.812 L368.302,268.812 L372.325,253.868 Z M377.473,267.124 C379.685,267.124 381.117,265.796 381.319,263.973 L379.545,263.973 C379.313,264.985 378.527,265.582 377.485,265.582 C375.943,265.582 374.95,264.296 374.95,262.255 C374.95,260.249 375.961,258.988 377.485,258.988 C378.643,258.988 379.35,259.719 379.545,260.597 L381.319,260.597 C381.124,258.708 379.582,257.452 377.455,257.452 C374.816,257.452 373.109,259.439 373.109,262.297 C373.109,265.119 374.755,267.124 377.473,267.124 Z M386.867,267.124 C389.506,267.124 391.231,265.192 391.231,262.297 C391.231,259.384 389.506,257.452 386.867,257.452 C384.228,257.452 382.504,259.384 382.504,262.297 C382.504,265.192 384.228,267.124 386.867,267.124 Z M386.873,265.594 C385.149,265.594 384.344,264.089 384.344,262.291 C384.344,260.499 385.149,258.976 386.873,258.976 C388.586,258.976 389.391,260.499 389.391,262.291 C389.391,264.089 388.586,265.594 386.873,265.594 Z M394.744,261.377 C394.744,259.884 395.658,259.031 396.926,259.031 C398.163,259.031 398.913,259.841 398.913,261.2 L398.913,266.935 L400.735,266.935 L400.735,260.981 C400.735,258.665 399.462,257.452 397.548,257.452 C396.14,257.452 395.22,258.104 394.787,259.098 L394.671,259.098 L394.671,257.574 L392.922,257.574 L392.922,266.935 L394.744,266.935 L394.744,261.377 Z M407.291,257.574 L405.274,257.574 L405.274,256.733 C405.274,255.904 405.615,255.453 406.505,255.453 C406.883,255.453 407.151,255.538 407.322,255.593 L407.748,254.118 C407.492,254.021 406.962,253.868 406.225,253.868 C404.744,253.868 403.445,254.734 403.445,256.489 L403.445,257.574 L402.001,257.574 L402.001,259.037 L403.445,259.037 L403.445,266.935 L405.274,266.935 L405.274,259.037 L407.291,259.037 L407.291,257.574 Z" id="Shape" fill="#8A8F98" fill-rule="nonzero"></path>
            <path d="M303.655,195.828 C303.655,191.161 300.758,188.5 296.975,188.5 C293.172,188.5 290.296,191.161 290.296,195.828 C290.296,200.474 293.172,203.155 296.975,203.155 C300.758,203.155 303.655,200.494 303.655,195.828 Z M300.597,195.828 C300.597,198.851 299.163,200.488 296.975,200.488 C294.781,200.488 293.353,198.851 293.353,195.828 C293.353,192.805 294.781,191.168 296.975,191.168 C299.163,191.168 300.597,192.805 300.597,195.828 Z M318.476,193.689 C318.079,190.395 315.585,188.5 312.283,188.5 C308.515,188.5 305.639,191.161 305.639,195.828 C305.639,200.481 308.466,203.155 312.283,203.155 C315.94,203.155 318.148,200.724 318.476,198.098 L315.425,198.084 C315.139,199.61 313.941,200.488 312.332,200.488 C310.166,200.488 308.696,198.879 308.696,195.828 C308.696,192.86 310.145,191.168 312.353,191.168 C314.004,191.168 315.195,192.122 315.425,193.689 L318.476,193.689 Z M320.095,191.182 L324.462,191.182 L324.462,202.96 L327.444,202.96 L327.444,191.182 L331.811,191.182 L331.811,188.695 L320.095,188.695 L320.095,191.182 Z M346.217,195.828 C346.217,191.161 343.319,188.5 339.537,188.5 C335.734,188.5 332.857,191.161 332.857,195.828 C332.857,200.474 335.734,203.155 339.537,203.155 C343.319,203.155 346.217,200.494 346.217,195.828 Z M343.159,195.828 C343.159,198.851 341.724,200.488 339.537,200.488 C337.343,200.488 335.915,198.851 335.915,195.828 C335.915,192.805 337.343,191.168 339.537,191.168 C341.724,191.168 343.159,192.805 343.159,195.828 Z M348.451,202.96 L354.546,202.96 C357.75,202.96 359.456,201.289 359.456,199.018 C359.456,196.907 357.945,195.633 356.322,195.556 L356.322,195.417 C357.805,195.082 358.899,194.031 358.899,192.352 C358.899,190.214 357.311,188.695 354.162,188.695 L348.451,188.695 L348.451,202.96 Z M351.467,200.494 L351.467,196.705 L353.995,196.705 C355.444,196.705 356.343,197.541 356.343,198.718 C356.343,199.791 355.611,200.494 353.926,200.494 L351.467,200.494 Z M351.467,194.665 L351.467,191.133 L353.758,191.133 C355.096,191.133 355.855,191.823 355.855,192.854 C355.855,193.982 354.936,194.665 353.703,194.665 L351.467,194.665 Z M361.419,202.96 L371.059,202.96 L371.059,200.474 L364.435,200.474 L364.435,197.068 L370.536,197.068 L370.536,194.581 L364.435,194.581 L364.435,191.182 L371.031,191.182 L371.031,188.695 L361.419,188.695 L361.419,202.96 Z M373.429,202.96 L376.445,202.96 L376.445,197.903 L378.646,197.903 L381.348,202.96 L384.678,202.96 L381.648,197.416 C383.271,196.719 384.169,195.305 384.169,193.355 C384.169,190.52 382.295,188.695 379.057,188.695 L373.429,188.695 L373.429,202.96 Z M376.445,195.479 L376.445,191.161 L378.478,191.161 C380.22,191.161 381.063,191.934 381.063,193.355 C381.063,194.769 380.22,195.479 378.492,195.479 L376.445,195.479 Z M390.757,202.96 L400.926,202.96 L400.926,200.494 L394.936,200.494 L394.936,200.397 L397.018,198.356 C399.951,195.681 400.738,194.344 400.738,192.721 C400.738,190.248 398.718,188.5 395.66,188.5 C392.665,188.5 390.61,190.29 390.616982,193.09 L393.48,193.09 C393.473,191.725 394.337,190.889 395.639,190.889 C396.893,190.889 397.826,191.669 397.826,192.923 C397.826,194.059 397.13,194.839 395.834,196.085 L390.757,200.787 L390.757,202.96 Z M403.675,202.96 L406.789,202.96 L412.709,191.196 L412.709,188.695 L402.7,188.695 L402.7,191.161 L409.589,191.161 L409.589,191.258 L403.675,202.96 Z M415.577,201.01 L413.126,201.01 L413.091,201.79 C413.007,203.685 412.464,205.628 412.262,206.443 L414.184,206.443 C414.519,205.6 415.313,203.622 415.501,201.776 L415.577,201.01 Z M422.132,202.96 L432.301,202.96 L432.301,200.494 L426.311,200.494 L426.311,200.397 L428.394,198.356 C431.326,195.681 432.113,194.344 432.113,192.721 C432.113,190.248 430.093,188.5 427.035,188.5 C424.04,188.5 421.986,190.29 421.991987,193.09 L424.855,193.09 C424.848,191.725 425.712,190.889 427.014,190.889 C428.268,190.889 429.202,191.669 429.202,192.923 C429.202,194.059 428.505,194.839 427.21,196.085 L422.132,200.787 L422.132,202.96 Z M440.08,203.274 C443.667,203.274 445.833,200.543 445.840017,195.842 C445.847,191.175 443.653,188.5 440.08,188.5 C436.5,188.5 434.326,191.168 434.318933,195.842 C434.305,200.529 436.486,203.267 440.08,203.274 Z M440.08,200.773 C438.443,200.773 437.384,199.129 437.390966,195.842 C437.398,192.603 438.45,190.973 440.08,190.973 C441.703,190.973 442.761035,192.603 442.761035,195.842 C442.768,199.129 441.71,200.773 440.08,200.773 Z M447.991,202.96 L458.16,202.96 L458.16,200.494 L452.17,200.494 L452.17,200.397 L454.252,198.356 C457.185,195.681 457.972,194.344 457.972,192.721 C457.972,190.248 455.952,188.5 452.894,188.5 C449.899,188.5 447.844,190.29 447.850982,193.09 L450.714,193.09 C450.707,191.725 451.571,190.889 452.873,190.889 C454.127,190.889 455.06,191.669 455.06,192.923 C455.06,194.059 454.364,194.839 453.068,196.085 L447.991,200.787 L447.991,202.96 Z M465.938,203.274 C469.526,203.274 471.692,200.543 471.699017,195.842 C471.706,191.175 469.512,188.5 465.938,188.5 C462.358,188.5 460.185,191.168 460.177933,195.842 C460.164,200.529 462.344,203.267 465.938,203.274 Z M465.938,200.773 C464.302,200.773 463.243,199.129 463.249966,195.842 C463.257,192.603 464.309,190.973 465.938,190.973 C467.561,190.973 468.620034,192.603 468.620034,195.842 C468.627,199.129 467.568,200.773 465.938,200.773 Z" id="Shape" fill="#FFFFFF" fill-rule="nonzero"></path>
            <path d="M303.349,218.803 C303.349,214.136 300.451,211.475 296.669,211.475 C292.866,211.475 289.989,214.136 289.989,218.803 C289.989,223.449 292.866,226.13 296.669,226.13 C300.451,226.13 303.349,223.47 303.349,218.803 Z M300.291,218.803 C300.291,221.826 298.856,223.463 296.669,223.463 C294.475,223.463 293.047,221.826 293.047,218.803 C293.047,215.78 294.475,214.143 296.669,214.143 C298.856,214.143 300.291,215.78 300.291,218.803 Z M317.514,211.67 L314.512,211.67 L314.512,220.642 L314.387,220.642 L308.23,211.67 L305.583,211.67 L305.583,225.935 L308.599,225.935 L308.599,216.957 L308.703,216.957 L314.909,225.935 L317.514,225.935 L317.514,211.67 Z M320.006,225.935 L329.138,225.935 L329.138,223.449 L323.022,223.449 L323.022,211.67 L320.006,211.67 L320.006,225.935 Z M334.151,211.67 L331.135,211.67 L331.135,225.935 L334.151,225.935 L334.151,211.67 Z M348.564,211.67 L345.562,211.67 L345.562,220.642 L345.437,220.642 L339.279,211.67 L336.632,211.67 L336.632,225.935 L339.648,225.935 L339.648,216.957 L339.753,216.957 L345.959,225.935 L348.564,225.935 L348.564,211.67 Z M351.056,225.935 L360.696,225.935 L360.696,223.449 L354.072,223.449 L354.072,220.043 L360.173,220.043 L360.173,217.556 L354.072,217.556 L354.072,214.157 L360.668,214.157 L360.668,211.67 L351.056,211.67 L351.056,225.935 Z" id="Shape" fill="#FFFFFF" fill-rule="nonzero"></path>
            <circle id="Oval" fill="#000000" fill-rule="nonzero" cx="263.456" cy="219.47" r="8.87631"></circle>
            <circle id="Oval" fill="#000000" fill-rule="nonzero" cx="245.704" cy="219.47" r="8.87631"></circle>
            <path d="M124.097,188.672 L126.871,188.672 L139.161,205.733 L151.723,188.672 L168.809,167 L140.738,207.526 L155.203,227.467 L152.321,227.467 L139.161,209.319 L125.946,227.467 L123.118,227.467 L137.692,207.526 L124.097,188.672 Z M95.6558,188.672 L121.759,188.672 L121.759,190.736 L98.0486,190.736 L98.0486,206.276 L120.345,206.276 L120.345,208.341 L98.0486,208.341 L98.0486,225.402 L122.031,225.402 L122.031,227.467 L95.6558,227.467 L95.6558,188.672 Z M156.236,188.672 L156.236,190.736 L169.886,190.736 L169.886,227.467 L172.279,227.467 L172.279,190.736 L185.983,190.736 L185.983,188.672 L156.236,188.672 Z" id="Shape" fill="#FFFFFF"></path>
            <polygon id="Path" fill="#FFFFFF" fill-rule="nonzero" points="63 188.672 65.991 188.672 107.235 250.092 90.1905 227.467 65.5015 191.606 65.3928 227.467 63 227.467"></polygon>
            <path d="M198.161,224.883 C196.299,224.883 195.047,223.926 194.954,222.43 L196.246,222.43 C196.357,223.225 197.137,223.729 198.26,223.729 C199.308,223.729 200.076,223.19 200.076,222.448 C200.076,221.81 199.587,221.427 198.475,221.166 L197.393,220.905 C195.874,220.551 195.181,219.821 195.181,218.591 C195.181,217.101 196.403,216.109 198.237,216.109 C199.942,216.109 201.187,217.101 201.263,218.51 L199.994,218.51 C199.872,217.739 199.197,217.257 198.219,217.257 C197.189,217.257 196.502,217.75 196.502,218.504 C196.502,219.101 196.945,219.444 198.039,219.699 L198.964,219.925 C200.687,220.325 201.397,221.021 201.397,222.279 C201.397,223.88 200.151,224.883 198.161,224.883 Z M188.093,222.506 C188.093,223.944 189.135,224.883 190.654,224.883 C192.271,224.883 193.249,223.915 193.249,222.233 L193.249,216.312 L191.946,216.312 L191.946,222.227 C191.946,223.161 191.474,223.66 190.642,223.66 C189.897,223.66 189.391,223.196 189.373,222.506 L188.093,222.506 Z M185.742,224.779 C186.236,224.779 186.597,224.402 186.597,223.915 C186.597,223.428 186.236,223.051 185.742,223.051 C185.253,223.051 184.886,223.428 184.886,223.915 C184.886,224.402 185.253,224.779 185.742,224.779 Z" id="Shape" fill="#FFFFFF"></path>
            <polyline id="Path" stroke="#FFFFFF" stroke-width="0.878039" stroke-linecap="round" stroke-linejoin="round" points="268.388 219.47 266.415 219.47 264.936 223.909 261.977 215.032 260.498 219.47 258.525 219.47"></polyline>
            <path d="M249.156,215.032 L242.252,215.032 C241.707,215.032 241.266,215.474 241.266,216.018 L241.266,222.922 C241.266,223.467 241.707,223.909 242.252,223.909 L249.156,223.909 C249.7,223.909 250.142,223.467 250.142,222.922 L250.142,216.018 C250.142,215.474 249.7,215.032 249.156,215.032 Z" id="Path" stroke="#FFFFFF" stroke-width="0.878039" stroke-linecap="round" stroke-linejoin="round"></path>
            <path d="M243.977,218.484 C244.386,218.484 244.717,218.153 244.717,217.745 C244.717,217.336 244.386,217.005 243.977,217.005 C243.569,217.005 243.238,217.336 243.238,217.745 C243.238,218.153 243.569,218.484 243.977,218.484 Z" id="Path" stroke="#FFFFFF" stroke-width="0.878039" stroke-linecap="round" stroke-linejoin="round"></path>
            <polyline id="Path" stroke="#FFFFFF" stroke-width="0.878039" stroke-linecap="round" stroke-linejoin="round" points="250.142 220.95 247.676 218.484 242.252 223.909"></polyline>
            <circle id="Oval" fill="#000000" fill-rule="nonzero" cx="227.952" cy="219.47" r="8.87631"></circle>
            <g id="Group" transform="translate(223.000000, 214.000000)" stroke="#FFFFFF" stroke-linecap="round" stroke-linejoin="round" stroke-width="0.878039">
                <path d="M4.952,10.402 C7.675,10.402 9.883,8.194 9.883,5.47 C9.883,2.747 7.675,0.539 4.952,0.539 C2.228,0.539 0.021,2.747 0.021,5.47 C0.021,8.194 2.228,10.402 4.952,10.402 Z" id="Path"></path>
                <line x1="0.021" y1="5.47" x2="9.883" y2="5.47" id="Path"></line>
                <path d="M4.952,0.539 C6.185,1.889 6.886,3.642 6.924,5.47 C6.886,7.299 6.185,9.051 4.952,10.402 C3.718,9.051 3.017,7.299 2.979,5.47 C3.017,3.642 3.718,1.889 4.952,0.539 L4.952,0.539 Z" id="Path"></path>
            </g>
            <path d="M232.195,193.914 C231.816,190.77 229.436,188.962 226.285,188.962 C222.689,188.962 219.944,191.501 219.944,195.955 C219.944,200.395 222.643,202.948 226.285,202.948 C229.775,202.948 231.882,200.628 232.195,198.122 L229.283,198.109 C229.011,199.564 227.867,200.402 226.332,200.402 C224.265,200.402 222.862,198.866 222.862,195.955 C222.862,193.123 224.245,191.508 226.352,191.508 C227.927,191.508 229.064,192.419 229.283,193.914 L232.195,193.914 Z M246.769,195.955 C246.769,191.501 244.004,188.962 240.394,188.962 C236.765,188.962 234.02,191.501 234.02,195.955 C234.02,200.389 236.765,202.948 240.394,202.948 C244.004,202.948 246.769,200.409 246.769,195.955 Z M243.851,195.955 C243.851,198.84 242.482,200.402 240.394,200.402 C238.3,200.402 236.938,198.84 236.938,195.955 C236.938,193.07 238.3,191.508 240.394,191.508 C242.482,191.508 243.851,193.07 243.851,195.955 Z M260.288,189.148 L257.423,189.148 L257.423,197.71 L257.303,197.71 L251.427,189.148 L248.901,189.148 L248.901,202.762 L251.779,202.762 L251.779,194.193 L251.879,194.193 L257.802,202.762 L260.288,202.762 L260.288,189.148 Z M262.666,202.762 L265.544,202.762 L265.544,197.138 L271.081,197.138 L271.081,194.765 L265.544,194.765 L265.544,191.521 L271.68,191.521 L271.68,189.148 L262.666,189.148 L262.666,202.762 Z" id="Shape" fill="#FFFFFF" fill-rule="nonzero"></path>
        </g>
    </g>
</svg>