<?xml version="1.0" encoding="UTF-8"?>
<svg width="283px" height="64px" viewBox="0 0 283 64" version="1.1" xmlns="http://www.w3.org/2000/svg" xmlns:xlink="http://www.w3.org/1999/xlink">
    <title>svgexport-5</title>
    <g id="Page-1" stroke="none" stroke-width="1" fill="none" fill-rule="evenodd">
        <g id="svgexport-5" fill="#8A8F98" fill-rule="nonzero">
            <path d="M141.04,16 C130,16 122.04,23.2 122.04,34 C122.04,44.8 131,52 142.04,52 C148.71,52 154.59,49.36 158.23,44.91 L150.58,40.49 C148.56,42.7 145.49,43.99 142.04,43.99 C137.25,43.99 133.18,41.49 131.67,37.49 L159.69,37.49 C159.91,36.37 160.04,35.21 160.04,33.99 C160.04,23.2 152.08,16 141.04,16 Z M131.58,30.5 C132.83,26.51 136.25,24 141.03,24 C145.82,24 149.24,26.51 150.48,30.5 L131.58,30.5 L131.58,30.5 Z M248.72,16 C237.68,16 229.72,23.2 229.72,34 C229.72,44.8 238.68,52 249.72,52 C256.39,52 262.27,49.36 265.91,44.91 L258.26,40.49 C256.24,42.7 253.17,43.99 249.72,43.99 C244.93,43.99 240.86,41.49 239.35,37.49 L267.37,37.49 C267.59,36.37 267.72,35.21 267.72,33.99 C267.72,23.2 259.76,16 248.72,16 L248.72,16 Z M239.27,30.5 C240.52,26.51 243.94,24 248.72,24 C253.51,24 256.93,26.51 258.17,30.5 L239.27,30.5 Z M200.24,34 C200.24,40 204.16,44 210.24,44 C214.36,44 217.45,42.13 219.04,39.08 L226.72,43.51 C223.54,48.81 217.58,52 210.24,52 C199.19,52 191.24,44.8 191.24,34 C191.24,23.2 199.2,16 210.24,16 C217.58,16 223.53,19.19 226.72,24.49 L219.04,28.92 C217.45,25.87 214.36,24 210.24,24 C204.17,24 200.24,28 200.24,34 Z M282.72,5 L282.72,51 L273.72,51 L273.72,5 L282.72,5 Z M36.95,0 L73.9,64 L0,64 L36.95,0 Z M129.33,5 L101.62,53 L73.91,5 L84.3,5 L101.62,35 L118.94,5 L129.33,5 Z M188.24,17 L188.24,26.69 C187.24,26.4 186.18,26.2 185.04,26.2 C179.23,26.2 175.04,30.2 175.04,36.2 L175.04,51 L166.04,51 L166.04,17 L175.04,17 L175.04,26.2 C175.04,21.12 180.95,17 188.24,17 Z" id="Shape"></path>
        </g>
    </g>
</svg>